<?xml version="1.0" encoding="UTF-8"?>
<svg version="1.1" xmlns="http://www.w3.org/2000/svg"
  xmlns:xlink="http://www.w3.org/1999/xlink"
  viewBox="0 0 512 512"
  fill="none">
  <path
    d="M0 0 C3.27387959 1.0912932 5.18554213 2.43554213 7.625 4.875 C8.64600278 7.3677185 8.86562907 9.09609962 8.06445312 11.68945312 C7.12182283 13.92199855 6.08316873 16.08208291 5 18.25 C4.60554688 19.06202881 4.21109375 19.87405762 3.8046875 20.71069336 C-1.11057929 30.64706252 -6.65586006 40.24949926 -12.2109375 49.83813477 C-12.96849974 51.1637098 -13.69220432 52.50940864 -14.375 53.875 C-10.24393824 52.4707362 -7.4400375 50.50334326 -4.125 47.6875 C-0.69117141 44.80677132 2.75130158 41.97181716 6.3125 39.25 C9.03010179 37.1606354 11.60338891 35.00782949 14.125 32.6875 C18.84797947 28.47665083 24.06486491 24.97215444 29.25683594 21.37304688 C34.24275208 17.90286679 38.95837626 14.28683322 43.546875 10.30078125 C46.04333044 8.58798758 47.59029293 7.97692909 50.625 7.875 C53.23046875 9.23828125 53.23046875 9.23828125 55.8125 11.1875 C56.67230469 11.82300781 57.53210938 12.45851562 58.41796875 13.11328125 C60.625 14.875 60.625 14.875 62.625 16.875 C62.71479938 25.09663217 58.55287131 32.14031254 55.0625 39.375 C54.43971757 40.68700796 53.81796333 41.99950449 53.19726562 43.3125 C51.68500317 46.50572617 50.15888806 49.69209482 48.625 52.875 C48.955 53.205 49.285 53.535 49.625 53.875 C54.94317805 49.55864307 60.23608599 45.22256528 65.43701172 40.76586914 C71.36354833 35.69475483 77.43138558 30.90942431 83.71826172 26.28710938 C86.07336482 24.54294595 88.41364209 22.77964748 90.75390625 21.015625 C91.65874756 20.3340332 92.56358887 19.65244141 93.49584961 18.95019531 C95.31364897 17.58052112 97.13088114 16.21009379 98.94750977 14.83886719 C99.78209717 14.21141602 100.61668457 13.58396484 101.4765625 12.9375 C102.60312256 12.08865234 102.60312256 12.08865234 103.75244141 11.22265625 C107.19122242 8.74780994 109.3777354 8.31404052 113.625 8.875 C116.84754402 11.01240165 119.87833994 13.38167988 121.625 16.875 C122.16184641 22.58509358 120.88772468 26.01994253 117.8125 30.6875 C116.97621323 32.0128005 116.14029125 33.33833124 115.3046875 34.6640625 C114.86350586 35.35274414 114.42232422 36.04142578 113.96777344 36.75097656 C112.63220476 38.86360337 111.34498057 40.99859504 110.0703125 43.1484375 C104.6151495 52.31945098 98.75324863 61.09680169 92.56713867 69.79077148 C88.19793597 75.96139249 84.22422422 82.21778829 80.625 88.875 C87.88729346 85.41940489 94.7294619 81.00134489 101.625 76.875 C102.3895752 76.41754395 103.15415039 75.96008789 103.94189453 75.48876953 C117.65701469 67.23652511 130.96940166 58.39941235 144.25390625 49.47753906 C145.29136238 48.78129425 145.29136238 48.78129425 146.34977722 48.07098389 C147.64192988 47.20319689 148.93327265 46.33420205 150.22358704 45.46368408 C152.01786946 44.25779662 153.81945284 43.06394803 155.625 41.875 C156.32700531 41.40803711 157.02901062 40.94107422 157.75228882 40.45996094 C158.45947052 40.00073242 159.16665222 39.54150391 159.89526367 39.06835938 C160.85960579 38.43673889 160.85960579 38.43673889 161.84342957 37.7923584 C163.625 36.875 163.625 36.875 166.5625 36.9375 C168.625 37.875 168.625 37.875 169.625 39.875 C170.09938396 44.04957887 169.67307969 46.84267791 167.125 50.2578125 C154.79894105 63.54684481 136.67880304 73.37717549 121.72265625 83.5234375 C112.6250256 89.71255734 103.73438651 96.14861341 94.90234375 102.7109375 C80.26155677 113.56122947 80.26155677 113.56122947 69.625 112.875 C66.2046134 111.70486774 65.70959518 111.00189277 63.625 107.875 C62.45872495 98.5719223 64.4011566 90.53532466 67.625 81.875 C68.27855469 80.06322266 68.27855469 80.06322266 68.9453125 78.21484375 C71.91744386 70.24436278 75.6172135 62.99656376 79.98828125 55.703125 C81.71677772 52.93548839 81.71677772 52.93548839 82.625 49.875 C78.42328542 52.17317538 75.02849907 55.04831195 71.5625 58.3125 C70.99958252 58.83674561 70.43666504 59.36099121 69.85668945 59.90112305 C65.4050602 64.07409785 61.09041112 68.37453354 56.8034668 72.71557617 C53.49022285 76.05645351 50.06522258 79.18621549 46.484375 82.234375 C44.44199172 84.03647789 42.53598289 85.93438947 40.625 87.875 C37.52735409 91.01458696 34.32389122 93.93981467 30.97265625 96.8046875 C29.06642054 98.48572731 27.21391364 100.19624919 25.37109375 101.9453125 C24.79512451 102.48897461 24.21915527 103.03263672 23.62573242 103.59277344 C22.47578089 104.68130656 21.33121166 105.77555948 20.19262695 106.87597656 C17.42094549 109.48964746 15.43911313 111.35077197 11.625 111.875 C9.125 110.6875 9.125 110.6875 6.625 108.875 C5.8825 108.33875 5.14 107.8025 4.375 107.25 C1.74752094 103.68413556 1.48336843 100.25448713 1.625 95.875 C2.54004734 92.48211973 4.01914757 89.49181495 5.625 86.375 C6.28157593 85.04650024 6.28157593 85.04650024 6.95141602 83.69116211 C12.38331611 72.96020983 18.71544547 62.72276693 25.06616211 52.51782227 C26.72918696 49.69836354 28.1926989 46.81742417 29.625 43.875 C24.21326496 46.29095314 20.1478364 48.91272328 15.796875 52.91796875 C13.46470749 55.01943624 11.03105201 56.9359451 8.5625 58.875 C2.99117777 63.39103 -1.995928 68.38844348 -7.02636719 73.49267578 C-11.31281229 77.83740246 -15.70616782 81.94233223 -20.375 85.875 C-26.72184556 91.2646164 -32.08910441 96.83528581 -37.28125 103.34375 C-43.9341716 111.38683432 -43.9341716 111.38683432 -49.5 112.5 C-53.18924364 111.69799051 -54.81018203 110.6535528 -57.375 107.875 C-59.84020305 102.63644353 -59.27779508 99.61630599 -57.4453125 94.45141602 C-55.41297538 89.55925049 -52.76254611 85.02349377 -50.125 80.4375 C-49.50874756 79.35130371 -48.89249512 78.26510742 -48.25756836 77.14599609 C-43.24425152 68.32980084 -38.15801105 59.55500237 -33.07128906 50.78100586 C-27.78961257 41.65056486 -22.65109251 32.44555021 -17.56079102 23.20751953 C-15.84139927 20.09143713 -14.11195418 16.98132495 -12.375 13.875 C-11.75238281 12.75834961 -11.12976563 11.64169922 -10.48828125 10.49121094 C-9.56595703 8.86747559 -9.56595703 8.86747559 -8.625 7.2109375 C-8.07328125 6.23431152 -7.5215625 5.25768555 -6.953125 4.25146484 C-5.0134446 1.33054142 -3.63677008 -0.19140895 0 0 Z "
    fill="#FFFFFF" transform="translate(244.375,212.125)" />
  <path
    d="M0 0 C1.70122322 1.63137828 3.37188564 3.29565286 5 5 C-1.16590735 17.84883178 -8.09859832 30.22581783 -15.10595703 42.63085938 C-17.63443485 47.1285384 -20.12761443 51.64534082 -22.62133789 56.16235352 C-35.71074149 79.85255806 -49.25591689 103.26702648 -64.16796875 125.86328125 C-64.62579239 126.55759247 -65.08361603 127.25190369 -65.55531311 127.96725464 C-67.8286998 131.41202328 -70.10926813 134.85167225 -72.40258789 138.28320312 C-83.72046566 155.29951745 -93.35632439 173.20182079 -101.375 192 C-101.70894775 192.77706299 -102.04289551 193.55412598 -102.38696289 194.35473633 C-106.24793573 203.59147068 -107.81268179 211.8564449 -106.25 221.8125 C-105.79269497 225.70631787 -105.79269497 225.70631787 -107.5 228.125 C-111.11759679 229.39115888 -113.32149929 229.0325616 -117 228 C-121.15321846 224.76971898 -122.64841496 222.00564903 -124 217 C-125.19698233 203.28911149 -121.78749876 191.63240823 -116.98828125 178.93359375 C-115.84037267 176.04209704 -115.84037267 176.04209704 -116 173 C-120.06960159 174.36853859 -122.58458283 176.18107528 -125.6875 179.125 C-129.70110789 182.83802932 -133.79974166 186.31915868 -138.1015625 189.69140625 C-140.37636242 191.50327519 -142.61111201 193.34305291 -144.8359375 195.21484375 C-162.51996128 210.02411443 -162.51996128 210.02411443 -171.25 210.5 C-176.05090006 209.85987999 -179.35454969 209.09461378 -182.4453125 205.16015625 C-187.49838777 197.40729505 -187.81631984 190.17885211 -187 181 C-185.81889286 176.41355123 -184.01641339 172.27753714 -182 168 C-181.71060547 167.36803711 -181.42121094 166.73607422 -181.12304688 166.08496094 C-167.71089809 136.93987753 -142.6049344 108.6978096 -113.25 94.6875 C-104.15884056 92.76437012 -94.65745172 93.64753997 -86 97 C-83.81610665 98.46712835 -81.91005123 99.97428659 -80.01171875 101.79296875 C-76.89465247 103.66320852 -74.56408278 103.39478629 -71 103 C-68.58852708 100.84469452 -68.58852708 100.84469452 -66.80078125 97.76171875 C-66.44369583 97.21414917 -66.08661041 96.66657959 -65.71870422 96.10241699 C-64.55910745 94.31171621 -63.4360165 92.50101348 -62.3125 90.6875 C-61.51492628 89.43853688 -60.715267 88.19090323 -59.91357422 86.94458008 C-58.31834912 84.45589069 -56.73760283 81.95894772 -55.16943359 79.453125 C-53.33919524 76.53049778 -51.47147438 73.63482078 -49.58203125 70.75 C-38.93798899 54.40740683 -29.98280283 37.1049651 -21.09570312 19.76269531 C-9.30662728 -3.10220909 -9.30662728 -3.10220909 0 0 Z M-140 134 C-140.79148438 134.72703125 -141.58296875 135.4540625 -142.3984375 136.203125 C-156.07697632 149.16174072 -168.2644022 168.62914648 -173 187 C-172.70997374 189.27206387 -172.70997374 189.27206387 -172 191 C-165.12720489 189.18634573 -160.45802231 186.46565462 -155 182 C-153.89144531 181.13399503 -152.78057138 180.27095443 -151.66796875 179.41015625 C-146.07378602 175.0750416 -140.52271072 170.72058636 -135.24609375 166 C-132.72247782 163.7528846 -130.16686108 161.54523573 -127.60888672 159.33740234 C-121.70471863 154.24118834 -115.85508698 149.09559944 -110.07421875 143.859375 C-106.56965777 140.71780998 -102.98476985 137.72216455 -99.1875 134.9375 C-94.24814698 130.88064472 -90.70526148 125.16266433 -87 120 C-88.3553326 117.46326712 -88.3553326 117.46326712 -90 115 C-90.66 115 -91.32 115 -92 115 C-92 114.34 -92 113.68 -92 113 C-109.91327261 101.30153626 -127.53194094 122.12900292 -140 134 Z "
    fill="#FFFFFF" transform="translate(269,116)" />
  <path
    d="M0 0 C4.90264938 1.26231006 8.14368257 4.12484174 11.2890625 7.98046875 C12.91294121 11.9924044 13.23467773 15.46261563 11.5546875 19.5390625 C9.81929497 22.74953868 8.41083524 24.56595359 5.3515625 26.60546875 C1.72049121 27.24624604 -0.61548093 27.26314936 -3.77734375 25.25 C-8.99992299 20.89304163 -12.29121476 16.99908481 -13.0234375 10.04296875 C-12.62089251 6.35297304 -11.89890308 4.52273894 -9.6484375 1.60546875 C-5.91667074 -0.88237576 -4.28608242 -0.59335017 0 0 Z "
    fill="#FFFFFF" transform="translate(397.6484375,297.39453125)" />
</svg>